<?xml version="1.0" encoding="UTF-8" standalone="no"?>
<!-- Generator: Adobe Illustrator 25.0.1, SVG Export Plug-In . SVG Version: 6.00 Build 0)  -->

<svg
   version="1.0"
   id="Layer_1"
   x="0px"
   y="0px"
   viewBox="0 0 512 512"
   xml:space="preserve"
   sodipodi:docname="html5.svg"
   width="512"
   height="512"
   inkscape:version="1.2 (dc2aeda, 2022-05-15)"
   xmlns:inkscape="http://www.inkscape.org/namespaces/inkscape"
   xmlns:sodipodi="http://sodipodi.sourceforge.net/DTD/sodipodi-0.dtd"
   xmlns="http://www.w3.org/2000/svg"
   xmlns:svg="http://www.w3.org/2000/svg"><defs
   id="defs167" /><sodipodi:namedview
   id="namedview165"
   pagecolor="#505050"
   bordercolor="#ffffff"
   borderopacity="1"
   inkscape:showpageshadow="0"
   inkscape:pageopacity="0"
   inkscape:pagecheckerboard="1"
   inkscape:deskcolor="#505050"
   showgrid="false"
   inkscape:zoom="0.38815789"
   inkscape:cx="-69.559323"
   inkscape:cy="266.64407"
   inkscape:window-width="1369"
   inkscape:window-height="651"
   inkscape:window-x="0"
   inkscape:window-y="25"
   inkscape:window-maximized="0"
   inkscape:current-layer="Layer_1" />
<style
   type="text/css"
   id="style132">
	.st0{fill:#EBEBEB;}
	.st1{fill:#FFFFFF;}
</style>
<g
   id="g162"
   transform="matrix(0.75856334,0,0,0.75856334,-80.043558,25.396746)">
	<g
   id="g160">
		<polygon
   points="261.6,148.6 624.4,148.6 591.3,518.8 442.8,560 294.6,518.9 "
   id="polygon134" />
		<polygon
   points="563,495.2 591.3,178.9 443,178.9 443,528.5 "
   id="polygon136" />
		<g
   id="g142">
			<polygon
   class="st0"
   points="382.9,316.2 378.8,269.7 443,269.7 443,224.3 442.8,224.3 329.1,224.3 330.2,236.5 341.4,361.6 443,361.6 443,316.2 "
   id="polygon138" />
			<polygon
   class="st0"
   points="343.4,384.3 349.8,455.6 442.8,481.5 443,481.4 443,434.2 442.8,434.2 392.2,420.5 389,384.3 364.4,384.3 "
   id="polygon140" />
		</g>
		<g
   id="g152">
			<path
   d="m 295.4,48 h 23.1 v 22.8 h 21.1 V 48 h 23.1 v 69 H 339.6 V 93.9 H 318.5 V 117 h -23.1 z"
   id="path144" />
			<path
   d="M 393,70.9 H 372.7 V 48 h 63.7 V 70.9 H 416.1 V 117 H 393 Z"
   id="path146" />
			<path
   d="m 446.5,48 h 24.1 L 485.4,72.3 500.2,48 h 24.1 v 69 h -23 V 82.8 l -15.9,24.5 H 485 L 469.1,82.8 V 117 h -22.6 z"
   id="path148" />
			<path
   d="m 535.7,48 h 23.1 v 46.2 h 32.5 V 117 H 535.8 V 48 Z"
   id="path150" />
		</g>
		<g
   id="g158">
			<polygon
   class="st1"
   points="547.3,328.4 548.4,316.2 536.2,316.2 442.8,316.2 442.8,361.6 498.8,361.6 493.5,420.5 442.8,434.2 442.8,481.4 535.9,455.6 536.6,448 "
   id="polygon154" />
			<polygon
   class="st1"
   points="552.4,269.7 552.5,269.7 553.4,259.5 555.5,236.5 556.6,224.3 442.8,224.3 442.8,252.5 442.8,269.6 442.8,269.7 "
   id="polygon156" />
		</g>
	</g>
</g>
</svg>
