<?xml version="1.0" encoding="UTF-8" standalone="no"?>
<!-- Created with Inkscape (http://www.inkscape.org/) -->

<svg
   width="108.73893"
   height="31.956703"
   viewBox="0 0 28.770508 8.4552109"
   version="1.1"
   id="svg5"
   inkscape:version="1.2 (dc2aeda, 2022-05-15)"
   sodipodi:docname="logo.svg"
   inkscape:export-filename="nuovo.png"
   inkscape:export-xdpi="96"
   inkscape:export-ydpi="96"
   xmlns:inkscape="http://www.inkscape.org/namespaces/inkscape"
   xmlns:sodipodi="http://sodipodi.sourceforge.net/DTD/sodipodi-0.dtd"
   xmlns="http://www.w3.org/2000/svg"
   xmlns:svg="http://www.w3.org/2000/svg">
  <sodipodi:namedview
     id="namedview7"
     pagecolor="#505050"
     bordercolor="#ffffff"
     borderopacity="1"
     inkscape:showpageshadow="0"
     inkscape:pageopacity="0"
     inkscape:pagecheckerboard="1"
     inkscape:deskcolor="#505050"
     inkscape:document-units="mm"
     showgrid="false"
     inkscape:zoom="3.7558163"
     inkscape:cx="22.365311"
     inkscape:cy="73.619149"
     inkscape:window-width="1440"
     inkscape:window-height="847"
     inkscape:window-x="0"
     inkscape:window-y="25"
     inkscape:window-maximized="0"
     inkscape:current-layer="text8791-4-9-8" />
  <defs
     id="defs2" />
  <g
     inkscape:label="Layer 1"
     inkscape:groupmode="layer"
     id="layer1"
     transform="translate(-2.5480793,-12.705728)">
    <g
       id="g10550"
       transform="matrix(2.9367718,0,0,2.9367718,-32.418894,-16.26441)"
       inkscape:export-filename="./128.svg"
       inkscape:export-xdpi="96"
       inkscape:export-ydpi="96">
      <g
         aria-label="iside"
         id="text8791-4-9-8"
         style="font-weight:bold;font-size:0.578875px;line-height:1.1;font-family:'Blackpast DEMO';-inkscape-font-specification:'Blackpast DEMO Bold';text-align:center;letter-spacing:0.181101px;text-anchor:middle;fill:#17d7a0;fill-rule:evenodd;stroke-width:0;stroke-linecap:round;stroke-linejoin:round;paint-order:stroke fill markers">
        <path
           d="m 16.507049,12.321702 v 0.405212 h -0.06946 v -0.284227 l 0.06946,-0.05615 h -0.06946 v -0.06483 z"
           id="path422" />
        <path
           d="m 16.781927,12.385378 q 0.0069,-0.02026 0.01968,-0.03531 0.01331,-0.01505 0.03126,-0.02489 0.01795,-0.01042 0.03878,-0.01505 0.02084,-0.0052 0.04342,-0.0052 0.03994,0 0.07699,0.01621 0.03763,0.01563 0.06541,0.04342 l -0.04573,0.05094 q -0.02026,-0.02026 -0.04573,-0.03126 -0.02489,-0.011 -0.05326,-0.011 -0.01331,0 -0.02547,0.0029 -0.01216,0.0023 -0.022,0.0087 -0.0093,0.0058 -0.01505,0.01621 -0.0058,0.0098 -0.0058,0.02489 0,0.0064 0.0023,0.011 z m 0.06773,0.05731 q 0.0081,0.01274 0.02721,0.02258 0.01968,0.0098 0.04399,0.01968 0.02489,0.0098 0.05094,0.02142 0.02605,0.011 0.04747,0.02779 0.022,0.01621 0.03589,0.03879 0.01447,0.02258 0.01447,0.05499 0,0.02952 -0.01331,0.05152 -0.01331,0.02142 -0.03415,0.03589 -0.02084,0.01447 -0.04747,0.02142 -0.02605,0.0069 -0.0521,0.0069 -0.02258,0 -0.04515,-0.0041 -0.022,-0.0041 -0.04284,-0.01274 -0.02026,-0.0087 -0.03821,-0.022 -0.01795,-0.01331 -0.03184,-0.03184 l 0.05384,-0.04226 q 0.0191,0.02547 0.04747,0.03531 0.02894,0.0093 0.05905,0.0093 0.01158,0 0.02489,-0.0023 0.01331,-0.0023 0.02489,-0.0081 0.01158,-0.0058 0.0191,-0.01505 0.0075,-0.0098 0.0075,-0.02431 0,-0.01852 -0.01505,-0.03126 -0.01505,-0.01331 -0.03821,-0.02373 -0.02315,-0.011 -0.05094,-0.02142 -0.02721,-0.011 -0.0521,-0.02489 -0.02489,-0.01447 -0.04342,-0.03357 -0.01852,-0.01968 -0.02373,-0.04805 z"
           id="path424" />
        <path
           d="m 17.396606,12.321702 v 0.405212 h -0.06946 v -0.284227 l 0.06946,-0.05615 h -0.06946 v -0.06483 z"
           id="path426" />
        <path
           d="m 17.73516,12.386536 h -0.06947 v -0.06483 h 0.119828 q 0.0521,5.79e-4 0.09088,0.01794 0.03879,0.01737 0.06425,0.04631 0.02605,0.02837 0.03879,0.06483 0.01331,0.03589 0.01331,0.07352 0,0.03763 -0.01331,0.0741 -0.01274,0.03589 -0.03879,0.06483 -0.02547,0.02837 -0.06425,0.04573 -0.03879,0.01737 -0.09088,0.01795 h -0.119828 v -0.284227 z m 0,0 v 0.274966 h 0.04747 q 0.04573,0 0.07583,-0.02026 0.03068,-0.02026 0.04573,-0.05094 0.01563,-0.03068 0.01563,-0.06599 0,-0.03589 -0.01505,-0.06657 -0.01505,-0.03068 -0.04573,-0.05094 -0.03068,-0.02026 -0.07641,-0.02026 z"
           id="path428" />
        <path
           d="m 18.252587,12.321702 h 0.26223 v 0.06483 h -0.192765 v 0.105355 h 0.151086 v 0.06483 h -0.151086 v 0.105355 h 0.192765 v 0.06483 h -0.26223 v -0.284227 l 0.06947,-0.05615 h -0.06947 z"
           id="path430" />
      </g>
      <g
         aria-label="francky"
         id="text1700-7-8-6-5-3-3"
         style="font-weight:bold;font-size:6.35px;line-height:1.1;font-family:serif;-inkscape-font-specification:'serif Bold';text-align:center;text-anchor:middle;display:inline;fill:#17d7a0;fill-opacity:1;fill-rule:evenodd;stroke-width:0;stroke-linecap:round;stroke-linejoin:round;paint-order:stroke fill markers"
         transform="matrix(0.33271096,0,0,0.33271096,11.153006,5.9071814)">
        <path
           d="m 2.2650175,18.398359 v -3.11785 l 0.762,-0.61595 h -0.762 v -0.7112 h 2.87655 v 0.7112 h -2.11455 v 1.397 h 1.65735 v 0.7112 h -1.65735 v 1.6256 z"
           style="font-family:'Blackpast DEMO';-inkscape-font-specification:'Blackpast DEMO Bold';fill:#17d7a0;fill-opacity:1"
           id="path571-5-0-1-7-7" />
        <path
           d="m 7.3196102,13.953359 q 0.43815,0 0.7493,0.1524 0.31115,0.1524 0.48895,0.40005 0.18415,0.2413 0.2413,0.53975 0.05715,0.2921 -0.01905,0.57785 -0.06985,0.2794 -0.27305,0.5207 -0.19685,0.2413 -0.52705,0.3683 l 1.28905,1.88595 h -0.90805 l -1.20015,-1.77165 h -0.4826 v 1.77165 h -0.762 v -3.11785 l 0.7493,-0.6096 h -0.7493 v -0.71755 z m -0.64135,0.71755 v 1.23825 h 0.64135 q 0.2413,0 0.40005,-0.0889 0.1651,-0.09525 0.2413,-0.2286 0.08255,-0.1397 0.08255,-0.29845 0,-0.1651 -0.08255,-0.29845 -0.08255,-0.1397 -0.2413,-0.2286 -0.15875,-0.09525 -0.40005,-0.09525 z"
           style="font-family:'Blackpast DEMO';-inkscape-font-specification:'Blackpast DEMO Bold';fill:#17d7a0;fill-opacity:1"
           id="path573-8-0-3-7-6" />
        <path
           d="m 11.155006,15.280509 h 0.6096 l -1.549639,-3.385985 h 0.8001 l 3.952388,8.653407 h -0.7874 l -1.266099,-2.771872 h -2.1082 l -0.28575,0.6223 H 9.7262561 Z m 1.42875,1.78435 -0.7239,-1.5748 -0.7239,1.5748 z"
           style="font-family:'Blackpast DEMO';-inkscape-font-specification:'Blackpast DEMO Bold';fill:#17d7a0;fill-opacity:1"
           id="path575-3-9-9-3-8"
           sodipodi:nodetypes="ccccccccccccccc" />
        <path
           d="m 14.698295,13.953359 h 0.26035 l 2.6035,2.80035 v -2.80035 h 0.762 v 4.445 h -0.254 l -2.60985,-2.81305 v 2.81305 h -0.762 v -2.9591 h 0.62865 l -0.62865,-0.6731 z"
           style="font-family:'Blackpast DEMO';-inkscape-font-specification:'Blackpast DEMO Bold';fill:#17d7a0;fill-opacity:1"
           id="path577-0-5-7-2-6" />
        <path
           d="m 22.807242,18.042759 q -0.27305,0.22225 -0.5842,0.33655 -0.3048,0.1143 -0.74295,0.1143 -0.4826,0 -0.8636,-0.1397 -0.381,-0.14605 -0.6604,-0.38735 -0.2794,-0.24765 -0.4572,-0.56515 -0.1778,-0.32385 -0.254,-0.67945 -0.0762,-0.36195 -0.0508,-0.73025 0.0254,-0.3683 0.1524,-0.7112 h 0.889 q -0.14605,0.2286 -0.20955,0.50165 -0.05715,0.2667 -0.0381,0.53975 0.0254,0.27305 0.127,0.5334 0.10795,0.254 0.2921,0.45085 0.1905,0.19685 0.4572,0.3175 0.27305,0.1143 0.6223,0.1143 0.1778,0 0.3175,-0.0254 0.1397,-0.03175 0.24765,-0.0762 0.10795,-0.0508 0.18415,-0.1016 0.0762,-0.0508 0.127,-0.1016 z m -3.09245,-3.40995 q 0.28575,-0.34925 0.7239,-0.5588 0.4445,-0.2159 1.0414,-0.2159 0.3556,0 0.6985,0.12065 0.3429,0.1143 0.62865,0.3302 l -0.4445,0.6223 q -0.1397,-0.127 -0.3683,-0.22225 -0.22225,-0.09525 -0.508,-0.09525 -0.42545,0 -0.73025,0.17145 -0.3048,0.1651 -0.48895,0.43815 z"
           style="font-family:'Blackpast DEMO';-inkscape-font-specification:'Blackpast DEMO Bold';fill:#17d7a0;fill-opacity:1"
           id="path579-6-6-3-5-7" />
        <path
           d="m 23.708936,18.398359 v -4.445 h 0.762 v 2.0193 l 1.61925,-2.0193 h 0.889 l -1.91135,2.39395 0.88265,-0.03175 1.60655,2.0828 h -0.9144 l -1.5748,-2.05105 -0.5969,0.7493 v 1.30175 z"
           style="font-family:'Blackpast DEMO';-inkscape-font-specification:'Blackpast DEMO Bold';fill:#17d7a0;fill-opacity:1"
           id="path581-2-2-7-6-1" />
        <path
           d="m 28.833376,13.953359 1.0287,1.8923 1.0287,-1.8923 h 0.81915 l -1.46685,2.6797 v 1.7653 h -0.762 v -1.8796 h 0.0127 l 0.32385,-0.59055 -0.7366,-0.0254 -1.0668,-1.94945 z"
           style="font-family:'Blackpast DEMO';-inkscape-font-specification:'Blackpast DEMO Bold';fill:#17d7a0;fill-opacity:1"
           id="path583-2-8-5-3-8" />
      </g>
    </g>
  </g>
</svg>
