<?xml version="1.0" encoding="UTF-8" standalone="no"?>
<!-- Created with Inkscape (http://www.inkscape.org/) -->

<svg
   width="108.73893"
   height="31.956703"
   viewBox="0 0 28.770508 8.4552109"
   version="1.1"
   id="svg5"
   inkscape:version="1.2 (dc2aeda, 2022-05-15)"
   sodipodi:docname="nuovo.svg"
   inkscape:export-filename="nuovo.png"
   inkscape:export-xdpi="96"
   inkscape:export-ydpi="96"
   xmlns:inkscape="http://www.inkscape.org/namespaces/inkscape"
   xmlns:sodipodi="http://sodipodi.sourceforge.net/DTD/sodipodi-0.dtd"
   xmlns="http://www.w3.org/2000/svg"
   xmlns:svg="http://www.w3.org/2000/svg">
  <sodipodi:namedview
     id="namedview7"
     pagecolor="#505050"
     bordercolor="#ffffff"
     borderopacity="1"
     inkscape:showpageshadow="0"
     inkscape:pageopacity="0"
     inkscape:pagecheckerboard="1"
     inkscape:deskcolor="#505050"
     inkscape:document-units="mm"
     showgrid="false"
     inkscape:zoom="3.7558163"
     inkscape:cx="44.597496"
     inkscape:cy="73.619149"
     inkscape:window-width="1440"
     inkscape:window-height="847"
     inkscape:window-x="0"
     inkscape:window-y="25"
     inkscape:window-maximized="0"
     inkscape:current-layer="layer1" />
  <defs
     id="defs2" />
  <g
     inkscape:label="Layer 1"
     inkscape:groupmode="layer"
     id="layer1"
     transform="translate(-2.5480793,-12.705728)">
    <g
       id="g10550"
       transform="matrix(2.9367718,0,0,2.9367718,-32.418894,-16.26441)"
       inkscape:export-filename="./128.svg"
       inkscape:export-xdpi="96"
       inkscape:export-ydpi="96">
      <text
         xml:space="preserve"
         style="font-style:normal;font-variant:normal;font-weight:bold;font-stretch:normal;font-size:0.578875px;line-height:1.1;font-family:'Blackpast DEMO';-inkscape-font-specification:'Blackpast DEMO Bold';text-align:center;letter-spacing:0.181101px;text-anchor:middle;fill:#17d7a0;fill-opacity:1;fill-rule:evenodd;stroke-width:0;stroke-linecap:round;stroke-linejoin:round;paint-order:stroke fill markers"
         x="16.945509"
         y="12.726914"
         id="text8791-4-9-8"><tspan
           sodipodi:role="line"
           id="tspan8789-1-3-5"
           x="17.03606"
           y="12.726914"
           style="fill:#17d7a0;fill-opacity:1;stroke-width:0"
           dx="1.0498053">iside</tspan></text>
      <g
         aria-label="francky"
         id="text1700-7-8-6-5-3-3"
         style="font-weight:bold;font-size:6.35px;line-height:1.1;font-family:serif;-inkscape-font-specification:'serif Bold';text-align:center;text-anchor:middle;display:inline;fill:#17d7a0;fill-opacity:1;fill-rule:evenodd;stroke-width:0;stroke-linecap:round;stroke-linejoin:round;paint-order:stroke fill markers"
         transform="matrix(0.33271096,0,0,0.33271096,11.153006,5.9071814)">
        <path
           d="m 2.2650175,18.398359 v -3.11785 l 0.762,-0.61595 h -0.762 v -0.7112 h 2.87655 v 0.7112 h -2.11455 v 1.397 h 1.65735 v 0.7112 h -1.65735 v 1.6256 z"
           style="font-family:'Blackpast DEMO';-inkscape-font-specification:'Blackpast DEMO Bold';fill:#17d7a0;fill-opacity:1"
           id="path571-5-0-1-7-7" />
        <path
           d="m 7.3196102,13.953359 q 0.43815,0 0.7493,0.1524 0.31115,0.1524 0.48895,0.40005 0.18415,0.2413 0.2413,0.53975 0.05715,0.2921 -0.01905,0.57785 -0.06985,0.2794 -0.27305,0.5207 -0.19685,0.2413 -0.52705,0.3683 l 1.28905,1.88595 h -0.90805 l -1.20015,-1.77165 h -0.4826 v 1.77165 h -0.762 v -3.11785 l 0.7493,-0.6096 h -0.7493 v -0.71755 z m -0.64135,0.71755 v 1.23825 h 0.64135 q 0.2413,0 0.40005,-0.0889 0.1651,-0.09525 0.2413,-0.2286 0.08255,-0.1397 0.08255,-0.29845 0,-0.1651 -0.08255,-0.29845 -0.08255,-0.1397 -0.2413,-0.2286 -0.15875,-0.09525 -0.40005,-0.09525 z"
           style="font-family:'Blackpast DEMO';-inkscape-font-specification:'Blackpast DEMO Bold';fill:#17d7a0;fill-opacity:1"
           id="path573-8-0-3-7-6" />
        <path
           d="m 11.155006,15.280509 h 0.6096 l -1.549639,-3.385985 h 0.8001 l 3.952388,8.653407 h -0.7874 l -1.266099,-2.771872 h -2.1082 l -0.28575,0.6223 H 9.7262561 Z m 1.42875,1.78435 -0.7239,-1.5748 -0.7239,1.5748 z"
           style="font-family:'Blackpast DEMO';-inkscape-font-specification:'Blackpast DEMO Bold';fill:#17d7a0;fill-opacity:1"
           id="path575-3-9-9-3-8"
           sodipodi:nodetypes="ccccccccccccccc" />
        <path
           d="m 14.698295,13.953359 h 0.26035 l 2.6035,2.80035 v -2.80035 h 0.762 v 4.445 h -0.254 l -2.60985,-2.81305 v 2.81305 h -0.762 v -2.9591 h 0.62865 l -0.62865,-0.6731 z"
           style="font-family:'Blackpast DEMO';-inkscape-font-specification:'Blackpast DEMO Bold';fill:#17d7a0;fill-opacity:1"
           id="path577-0-5-7-2-6" />
        <path
           d="m 22.807242,18.042759 q -0.27305,0.22225 -0.5842,0.33655 -0.3048,0.1143 -0.74295,0.1143 -0.4826,0 -0.8636,-0.1397 -0.381,-0.14605 -0.6604,-0.38735 -0.2794,-0.24765 -0.4572,-0.56515 -0.1778,-0.32385 -0.254,-0.67945 -0.0762,-0.36195 -0.0508,-0.73025 0.0254,-0.3683 0.1524,-0.7112 h 0.889 q -0.14605,0.2286 -0.20955,0.50165 -0.05715,0.2667 -0.0381,0.53975 0.0254,0.27305 0.127,0.5334 0.10795,0.254 0.2921,0.45085 0.1905,0.19685 0.4572,0.3175 0.27305,0.1143 0.6223,0.1143 0.1778,0 0.3175,-0.0254 0.1397,-0.03175 0.24765,-0.0762 0.10795,-0.0508 0.18415,-0.1016 0.0762,-0.0508 0.127,-0.1016 z m -3.09245,-3.40995 q 0.28575,-0.34925 0.7239,-0.5588 0.4445,-0.2159 1.0414,-0.2159 0.3556,0 0.6985,0.12065 0.3429,0.1143 0.62865,0.3302 l -0.4445,0.6223 q -0.1397,-0.127 -0.3683,-0.22225 -0.22225,-0.09525 -0.508,-0.09525 -0.42545,0 -0.73025,0.17145 -0.3048,0.1651 -0.48895,0.43815 z"
           style="font-family:'Blackpast DEMO';-inkscape-font-specification:'Blackpast DEMO Bold';fill:#17d7a0;fill-opacity:1"
           id="path579-6-6-3-5-7" />
        <path
           d="m 23.708936,18.398359 v -4.445 h 0.762 v 2.0193 l 1.61925,-2.0193 h 0.889 l -1.91135,2.39395 0.88265,-0.03175 1.60655,2.0828 h -0.9144 l -1.5748,-2.05105 -0.5969,0.7493 v 1.30175 z"
           style="font-family:'Blackpast DEMO';-inkscape-font-specification:'Blackpast DEMO Bold';fill:#17d7a0;fill-opacity:1"
           id="path581-2-2-7-6-1" />
        <path
           d="m 28.833376,13.953359 1.0287,1.8923 1.0287,-1.8923 h 0.81915 l -1.46685,2.6797 v 1.7653 h -0.762 v -1.8796 h 0.0127 l 0.32385,-0.59055 -0.7366,-0.0254 -1.0668,-1.94945 z"
           style="font-family:'Blackpast DEMO';-inkscape-font-specification:'Blackpast DEMO Bold';fill:#17d7a0;fill-opacity:1"
           id="path583-2-8-5-3-8" />
      </g>
    </g>
  </g>
</svg>
